<svg xmlns="http://www.w3.org/2000/svg" viewBox="0 0 100 100" fill="none">
  <defs><linearGradient id="bg" x1="0" y1="0" x2="0" y2="1"><stop offset="0%" stop-color="#f0ece8"/><stop offset="100%" stop-color="#e0d8d0"/></linearGradient><clipPath id="c"><circle cx="50" cy="50" r="50"/></clipPath></defs>
  <circle cx="50" cy="50" r="50" fill="url(#bg)"/>
  <ellipse cx="50" cy="35" rx="34" ry="33" fill="#8a6a4a" clip-path="url(#c)"/>
  <ellipse cx="50" cy="50" rx="28" ry="15" fill="#8a6a4a" clip-path="url(#c)"/>
  <circle cx="50" cy="50" r="26" fill="#dcc0a8" clip-path="url(#c)"/>
  <circle cx="43" cy="50" r="2.5" fill="#4a3a2a"/>
  <circle cx="57" cy="50" r="2.5" fill="#4a3a2a"/>
  <circle cx="42" cy="49" r="0.8" fill="#ffffff"/>
  <circle cx="56" cy="49" r="0.8" fill="#ffffff"/>
  <!-- Glasses -->
  <circle cx="43" cy="50" r="7" fill="none" stroke="#6a5a4a" stroke-width="1.2"/>
  <circle cx="57" cy="50" r="7" fill="none" stroke="#6a5a4a" stroke-width="1.2"/>
  <line x1="50" y1="50" x2="50" y2="50" stroke="#6a5a4a" stroke-width="1.2"/>
  <line x1="36" y1="48" x2="33" y2="46" stroke="#6a5a4a" stroke-width="1.2"/>
  <line x1="64" y1="48" x2="67" y2="46" stroke="#6a5a4a" stroke-width="1.2"/>
  <path d="M45 58 Q50 62 55 58" stroke="#b08870" stroke-width="1.5" fill="none" stroke-linecap="round" clip-path="url(#c)"/>
  <path d="M18 100 Q30 72 50 68 Q70 72 82 100" fill="#d0d4d8" clip-path="url(#c)"/>
  <text x="50" y="84" font-family="system-ui, sans-serif" font-size="7" fill="#8a7a6a" text-anchor="middle" clip-path="url(#c)">PATIENT</text>
</svg>
